<svg width="176" height="89" viewBox="0 0 176 89" fill="none" xmlns="http://www.w3.org/2000/svg">
<path fill-rule="evenodd" clip-rule="evenodd" d="M91.1632 81.4913C111.435 81.4913 127.868 64.9297 127.868 44.5C127.868 24.0703 111.435 7.50873 91.1632 7.50873C70.8917 7.50873 54.4583 24.0703 54.4583 44.5C54.4583 64.9297 70.8917 81.4913 91.1632 81.4913ZM91.1632 88C115.002 88 134.326 68.5244 134.326 44.5C134.326 20.4756 115.002 1 91.1632 1C67.3248 1 48 20.4756 48 44.5C48 68.5244 67.3248 88 91.1632 88Z" fill="black"/>
<path d="M141 7.72569C141 11.4402 138.012 14.4514 134.326 14.4514C130.641 14.4514 127.653 11.4402 127.653 7.72569C127.653 4.01119 130.641 1 134.326 1C138.012 1 141 4.01119 141 7.72569Z" fill="black"/>
<path d="M94.0013 21.2157C94.0013 19.6396 92.7177 18.3545 91.1632 18.5272C77.3288 20.0644 66.3764 31.2449 65.0696 45.2524C64.9249 46.8033 66.1918 48.0699 67.7374 48.0699C69.283 48.0699 70.5188 46.8015 70.6976 45.2543C71.9595 34.3333 80.4714 25.6423 91.2549 24.1986C92.7705 23.9957 94.0013 22.7566 94.0013 21.2157Z" fill="black"/>
<path d="M24 0.9H21.7465C21.1481 0.9 20.5625 1.07317 20.0604 1.39861L2.03597 13.081C1.3276 13.5401 0.9 14.3268 0.9 15.1709C0.9 17.1445 3.08594 18.334 4.7431 17.2622L20.9878 6.75608C21.0369 6.72432 21.0941 6.70742 21.1526 6.70742C21.3202 6.70742 21.4561 6.8433 21.4561 7.01092V85.2781C21.4561 86.8366 22.7195 88.1 24.2781 88.1C25.8366 88.1 27.1 86.8366 27.1 85.2781V4C27.1 2.28792 25.7121 0.9 24 0.9Z" fill="black" stroke="black" stroke-width="0.2"/>
<path d="M152 85.3164C152 86.7985 153.201 88 154.684 88V88C156.166 88 157.367 86.7985 157.367 85.3164V79.1497C157.367 78.5118 157.62 77.8998 158.069 77.4473V77.4473C159.109 76.4012 160.835 76.5226 161.717 77.7038L168.623 86.9443C169.12 87.6087 169.901 88 170.73 88V88C172.899 88 174.136 85.5221 172.832 83.7886L165.597 74.1715C164.721 73.0063 164.809 71.3794 165.806 70.3158L171.545 64.196C172.949 62.6996 171.888 60.25 169.836 60.25V60.25C169.188 60.25 168.568 60.5188 168.125 60.9924L157.93 71.89C157.869 71.9558 157.783 71.9932 157.693 71.9932V71.9932C157.513 71.9932 157.367 71.8474 157.367 71.6677V53.6836C157.367 52.2015 156.166 51 154.684 51V51C153.201 51 152 52.2015 152 53.6836V85.3164Z" fill="black"/>
</svg>
