<svg width="408" height="87" viewBox="0 0 408 87" fill="none" xmlns="http://www.w3.org/2000/svg">
<path fill-rule="evenodd" clip-rule="evenodd" d="M43.1632 80.4913C63.4347 80.4913 79.8681 63.9297 79.8681 43.5C79.8681 23.0703 63.4347 6.50873 43.1632 6.50873C22.8917 6.50873 6.45833 23.0703 6.45833 43.5C6.45833 63.9297 22.8917 80.4913 43.1632 80.4913ZM43.1632 87C67.0016 87 86.3264 67.5244 86.3264 43.5C86.3264 19.4756 67.0016 0 43.1632 0C19.3248 0 0 19.4756 0 43.5C0 67.5244 19.3248 87 43.1632 87Z" fill="#171163"/>
<path d="M93 6.72569C93 10.4402 90.0121 13.4514 86.3264 13.4514C82.6407 13.4514 79.6528 10.4402 79.6528 6.72569C79.6528 3.01119 82.6407 0 86.3264 0C90.0121 0 93 3.01119 93 6.72569Z" fill="#171163"/>
<path d="M46.0013 20.2157C46.0013 18.6396 44.7177 17.3545 43.1632 17.5272C29.3288 19.0644 18.3764 30.2449 17.0696 44.2524C16.9249 45.8033 18.1918 47.0699 19.7374 47.0699C21.283 47.0699 22.5188 45.8015 22.6976 44.2543C23.9595 33.3333 32.4714 24.6423 43.2549 23.1986C44.7705 22.9957 46.0013 21.7566 46.0013 20.2157Z" fill="#171163"/>
<path d="M125.592 68.032H132.168V56.368C134.136 57.664 136.536 58.336 138.984 58.336C146.232 58.336 151.896 52.72 151.896 45.52C151.896 38.32 146.28 32.656 139.176 32.656C136.536 32.656 134.088 33.472 132.072 35.056V32.992H125.592V68.032ZM138.12 38.272C142.2 38.272 145.416 41.392 145.416 45.52C145.416 49.648 142.248 52.768 138.12 52.768C135.768 52.768 133.608 51.904 132.168 50.464V40.624C133.656 39.088 135.72 38.272 138.12 38.272Z" fill="#171163"/>
<path d="M155.92 58H162.496V40.672C163.648 39.04 165.424 38.176 167.632 38.176C170.8 38.176 172.816 40.24 172.816 43.408V58H179.392V42.448C179.392 36.592 175.312 32.512 169.504 32.512C166.768 32.512 164.416 33.376 162.496 34.96V22.96L155.92 24.4V58Z" fill="#171163"/>
<path d="M183.221 45.52C183.221 52.816 189.077 58.48 196.565 58.48C204.053 58.48 209.909 52.816 209.909 45.52C209.909 38.224 204.053 32.512 196.565 32.512C189.077 32.512 183.221 38.224 183.221 45.52ZM196.565 52.768C192.677 52.768 189.653 49.552 189.653 45.52C189.653 41.392 192.725 38.224 196.565 38.224C200.453 38.224 203.477 41.392 203.477 45.52C203.477 49.552 200.453 52.768 196.565 52.768Z" fill="#171163"/>
<path d="M216.141 50.944C216.141 55.84 219.021 58.384 224.589 58.384C226.029 58.384 228.285 58.048 229.677 57.616V52.24C228.381 52.672 227.421 52.816 226.173 52.816C223.629 52.816 222.717 51.952 222.717 49.6V38.512H229.821V32.992H222.717V25.12L216.141 26.608V32.992H211.005V38.512H216.141V50.944Z" fill="#171163"/>
<path d="M231.69 45.52C231.69 52.816 237.546 58.48 245.034 58.48C252.522 58.48 258.378 52.816 258.378 45.52C258.378 38.224 252.522 32.512 245.034 32.512C237.546 32.512 231.69 38.224 231.69 45.52ZM245.034 52.768C241.146 52.768 238.122 49.552 238.122 45.52C238.122 41.392 241.194 38.224 245.034 38.224C248.922 38.224 251.946 41.392 251.946 45.52C251.946 49.552 248.922 52.768 245.034 52.768Z" fill="#171163"/>
<path d="M283.588 61.84H259.78V66.448H283.588V61.84Z" fill="#171163"/>
<path d="M284.027 55.024C286.859 57.28 290.939 58.48 295.499 58.48C301.787 58.48 306.443 54.928 306.443 50.224C306.443 46.336 303.707 43.792 298.811 43.072L294.011 42.352C291.563 42.016 290.603 41.344 290.603 40C290.603 38.512 292.139 37.552 294.539 37.552C297.083 37.552 299.531 38.32 302.267 39.952L305.435 35.728C302.315 33.664 298.811 32.608 295.163 32.608C288.779 32.608 284.747 35.68 284.747 40.528C284.747 44.56 287.387 47.008 292.331 47.776L297.131 48.496C299.291 48.832 300.251 49.552 300.251 50.848C300.251 52.432 298.331 53.488 295.403 53.488C292.763 53.488 290.219 52.576 287.291 50.656L284.027 55.024Z" fill="#171163"/>
<path d="M309.717 58H316.293V40.672C317.445 39.04 319.221 38.176 321.429 38.176C324.597 38.176 326.613 40.24 326.613 43.408V58H333.189V42.448C333.189 36.592 329.109 32.512 323.301 32.512C320.565 32.512 318.213 33.376 316.293 34.96V22.96L309.717 24.4V58Z" fill="#171163"/>
<path d="M346.09 58.432C348.97 58.432 351.226 57.76 353.338 56.272V58H359.818V41.776C359.818 35.872 355.93 32.512 349.162 32.512C345.562 32.512 341.962 33.376 338.026 35.2L340.426 40.048C343.594 38.656 345.946 37.984 348.058 37.984C351.562 37.984 353.338 39.472 353.338 42.352V44.128C351.37 43.504 349.306 43.168 347.242 43.168C340.81 43.168 336.97 46 336.97 50.752C336.97 55.312 340.714 58.432 346.09 58.432ZM343.258 50.608C343.258 48.688 345.034 47.488 348.058 47.488C349.978 47.488 351.706 47.776 353.338 48.4V52.144C351.802 53.2 349.978 53.728 347.818 53.728C345.034 53.728 343.258 52.528 343.258 50.608Z" fill="#171163"/>
<path d="M364.795 58H371.371V41.824C372.619 39.376 374.875 38.08 377.419 38.08C378.619 38.08 379.819 38.32 380.779 38.752V32.992C380.107 32.608 379.339 32.464 378.043 32.416C375.259 32.416 372.955 33.568 371.371 35.728V32.992H364.795V58Z" fill="#171163"/>
<path d="M405.539 54.88L401.219 50.944C399.875 52.24 397.907 52.96 395.699 52.96C392.243 52.96 389.507 50.848 388.595 47.728H407.219V46C407.219 38.32 401.939 32.56 394.835 32.56C387.587 32.56 381.971 38.272 381.971 45.52C381.971 52.816 387.827 58.48 395.411 58.48C399.395 58.48 402.467 57.376 405.539 54.88ZM394.691 37.984C397.571 37.984 399.971 40.048 400.787 43.024H388.547C389.363 39.952 391.667 37.984 394.691 37.984Z" fill="#171163"/>
</svg>
