<svg width="93" height="87" viewBox="0 0 93 87" fill="none" xmlns="http://www.w3.org/2000/svg">
<path fill-rule="evenodd" clip-rule="evenodd" d="M43.1632 80.4913C63.4347 80.4913 79.8681 63.9297 79.8681 43.5C79.8681 23.0703 63.4347 6.50873 43.1632 6.50873C22.8917 6.50873 6.45833 23.0703 6.45833 43.5C6.45833 63.9297 22.8917 80.4913 43.1632 80.4913ZM43.1632 87C67.0016 87 86.3264 67.5244 86.3264 43.5C86.3264 19.4756 67.0016 0 43.1632 0C19.3248 0 0 19.4756 0 43.5C0 67.5244 19.3248 87 43.1632 87Z" fill="#171163"/>
<path d="M93 6.72569C93 10.4402 90.0121 13.4514 86.3264 13.4514C82.6407 13.4514 79.6528 10.4402 79.6528 6.72569C79.6528 3.01119 82.6407 0 86.3264 0C90.0121 0 93 3.01119 93 6.72569Z" fill="#171163"/>
<path d="M46.0013 20.2157C46.0013 18.6396 44.7177 17.3545 43.1632 17.5272C29.3288 19.0644 18.3764 30.2449 17.0696 44.2524C16.9249 45.8033 18.1918 47.0699 19.7374 47.0699C21.283 47.0699 22.5188 45.8015 22.6976 44.2543C23.9595 33.3333 32.4714 24.6423 43.2549 23.1986C44.7705 22.9957 46.0013 21.7566 46.0013 20.2157Z" fill="#171163"/>
</svg>
